# xmcd
#
# Track frame offsets: 
#        150
#        1492
#        19358
#        34941
#        52914
#        70155
#        86244
#        101128
#        115937
#        139509
#        151717
#        171813
#        187399
#        204310
#        233438
#        238365
#
# Disc length: 3396 seconds
#
# Revision: 0
# Processed by: cddbd v1.5.2PL0 Copyright (c) Steve Scherf et al.
# Submitted via: ExactAudioCopyFreeDBPlugin 1.0
#
DISCID=d70d4210
DTITLE=Blake Berglund and the Vultures - Jasper
DYEAR=2014
DGENRE=Country
TTITLE0=Intro
TTITLE1=Come Back Around
TTITLE2=Hangin' By A Thread
TTITLE3=As Fast As We Can
TTITLE4=I Think About Savanna
TTITLE5=Funny Thing About You Leaving (I Was Already Gone)
TTITLE6=Taxes and Death and You
TTITLE7=Still A Dog
TTITLE8=Love Is Like A Rodeo
TTITLE9=Shotgun Gypsy Queen
TTITLE10=Word's Gettin' Around
TTITLE11=Moose Mountain
TTITLE12=Get Off The Table, Mabel (The Money's For The Beer)
TTITLE13=Where Have All My Horses Gone
TTITLE14=Jasper Royal Canadian Legion Branch
TTITLE15=Faster Horses
EXTD=
EXTT0=
EXTT1=
EXTT2=
EXTT3=
EXTT4=
EXTT5=
EXTT6=
EXTT7=
EXTT8=
EXTT9=
EXTT10=
EXTT11=
EXTT12=
EXTT13=
EXTT14=
EXTT15=
PLAYORDER=
